# AST/ASF file generated using VICON BodyLanguage
# -----------------------------------------------
:version 1.10
:name VICON
:units
  mass 1.0
  length 0.45
  angle deg
:documentation
   .ast/.asf automatically generated from VICON data using
   VICON BodyBuilder and BodyLanguage model FoxedUp or BRILLIANT.MOD
:root
   order TX TY TZ RX RY RZ
   axis XYZ
   position 0 0 0  
   orientation 0 0 0 
:bonedata
  begin
     id 1 
     name lhipjoint
     direction 0.541323 -0.757556 0.364798 
     length 2.47576 
     axis 0 0 0  XYZ
  end
  begin
     id 2 
     name lfemur
     direction 0.34202 -0.939693 0  
     length 7.46493  
     axis 0 0 20  XYZ
    dof rx ry rz
    limits (-160.0 20.0)
           (-70.0 70.0)
           (-60.0 70.0)
  end
  begin
     id 3 
     name ltibia
     direction 0.34202 -0.939693 0   
     length 7.73805   
     axis 0 0 20   XYZ
    dof rx
    limits (-10.0 170.0)
  end
  begin
     id 4 
     name lfoot
     direction 0.107174 -0.294458 0.949636   
     length 2.25864   
     axis -90 7.62852e-016 20   XYZ
    dof rx rz
    limits (-45.0 90.0)
           (-70.0 20.0)
  end
  begin
     id 5 
     name ltoes
     direction 1.53606e-011 -4.21934e-011 1   
     length 1.12451   
     axis -90 7.62852e-016 20   XYZ
    dof rx
    limits (-90.0 20.0)
  end
  begin
     id 6 
     name rhipjoint
     direction -0.524745 -0.766967 0.36933   
     length 2.44538  
     axis 0 0 0  XYZ 
  end
  begin
     id 7 
     name rfemur
     direction -0.34202 -0.939693 0   
     length 7.61604   
     axis 0 0 -20   XYZ
    dof rx ry rz
    limits (-160.0 20.0)
           (-70.0 70.0)
           (-70.0 60.0)
  end
  begin
     id 8 
     name rtibia
     direction -0.34202 -0.939693 0   
     length 7.61056   
     axis 0 0 -20   XYZ
    dof rx
    limits (-10.0 170.0)
 end
 begin
     id 9 
     name rfoot
     direction -0.12616 -0.346623 0.929482   
     length 2.46372  
     axis -90 -7.62852e-016 -20   XYZ
    dof rx rz
    limits (-45.0 90.0)
           (-20.0 70.0)
  end
  begin
     id 10 
     name rtoes
     direction -1.53531e-011 -4.22004e-011 1   
     length 1.21611   
     axis -90 -7.62852e-016 -20   XYZ
    dof rx
    limits (-90.0 20.0)
  end
  begin
     id 11 
     name lowerback
     direction -0.000778023 0.997293 -0.0735223   
     length 2.06139   
     axis 0 0 0   XYZ
    dof rx ry rz
    limits (-20.0 45.0)
           (-30.0 30.0)
           (-30.0 30.0)
  end
  begin
     id 12 
     name upperback
     direction 0.0222598 0.999722 -0.0078355   
     length 2.06383   
     axis 0 0 0   XYZ
    dof rx ry rz
    limits (-20.0 45.0)
           (-30.0 30.0)
           (-30.0 30.0)
  end
  begin
     id 13 
     name thorax
     direction 0.0219654 0.999405 0.0265994   
     length 2.07163   
     axis 0 0 0   XYZ
    dof rx ry rz
    limits (-20.0 45.0)
           (-30.0 30.0)
           (-30.0 30.0)
  end
  begin
     id 14 
     name lowerneck
     direction 0.0213282 0.988147 0.15202   
     length 1.75969   
     axis 0 0 0   XYZ
    dof rx ry rz
    limits (-20.0 45.0)
           (-30.0 30.0)
           (-30.0 30.0)
  end
  begin
     id 15 
     name upperneck
     direction -0.0546456 0.982624 -0.177379   
     length 1.79244   
     axis 0 0 0   XYZ
    dof rx ry rz
    limits (-20.0 45.0)
           (-30.0 30.0)
           (-30.0 30.0)
  end
  begin
     id 16
     name head
     direction -0.0199987 0.996855 -0.076686  
     length 1.80555  
     axis 0 0 0   XYZ
    dof rx ry rz
    limits (-20.0 45.0)
           (-30.0 30.0)
           (-30.0 30.0)
  end
  begin
     id 17 
     name lclavicle
     direction 0.929565 0.363219 -0.063096  
     length 3.55722  
     axis 0 0 0   XYZ
    dof ry rz
    limits (-20.0 10.0)
           (0.0 20.0)
  end
  begin
     id 18 
     name lhumerus
     direction 1 -4.48993e-011 -2.36203e-027   
     length 4.92785   
     axis 180 -30 -90   XYZ
    dof rx ry rz
    limits (-60.0 90.0)
           (-90.0 90.0)
           (-90.0 90.0)
  end
  begin
     id 19
     name lradius
     direction 1 -4.48947e-011 2.02997e-027   
     length 3.44052   
     axis 180 -30 -90   XYZ
    dof rx
    limits (-10.0 170.0)
  end
  begin
     id 20
     name lwrist
     direction 1 -4.48962e-011 1.45991e-027   
     length 1.72026   
     axis 1.49639e-024 90 90   XYZ
    dof ry
    limits (-180.0 0.0)
 end
  begin
     id 21 
     name lhand
     direction 1 -4.48984e-011 2.91906e-027   
     length 0.654326   
     axis -1.863e-015 90 90   XYZ
    dof rx rz
    limits (-90.0 90.0)
           (-45.0 45.0)
  end
  begin
     id 22 
     name lfingers
     direction 1 -4.48961e-011 5.83968e-027   
     length 0.527534   
     axis -3.72598e-015 90 90   XYZ
    dof rx
    limits (0.0 90.0)
  end
  begin
     id 23
     name lthumb
     direction 0.707107 -6.34963e-011 0.707107   
     length 0.757437   
     axis -90 45 -6.68868e-015   XYZ
    dof rx rz
    limits (-45.0 45.0)
           (-45.0 45.0)
  end
  begin
     id 24 
     name rclavicle
     direction -0.902944 0.422599 -0.0781198   
     length 3.54432  
     axis 0 0 0   XYZ 
    dof ry rz
    limits (-10.0 20.0)
           (-20.0 0.0)
  end
  begin
     id 25 
     name rhumerus
     direction -1 -4.48953e-011 -4.75835e-028  
     length 5.09181   
     axis 180 30 90   XYZ
    dof rx ry rz
    limits (-90.0 60.0)
           (-90.0 90.0)
           (-90.0 90.0)
  end
  begin
     id 26 
     name rradius
     direction -1 -4.48986e-011 -3.25889e-027   
     length 3.49865   
     axis 180 30 90   XYZ
    dof rx
    limits (-10.0 170.0)
  end
  begin
     id 27 
     name rwrist
     direction -1 -4.48963e-011 1.45989e-027   
     length 1.74933   
     axis 1.49639e-024 -90 -90   XYZ
    dof ry
    limits (-180.0 0.0)
  end
  begin
     id 28
     name rhand
     direction -1 -4.49003e-011 2.91844e-027   
     length 0.66641   
     axis -1.863e-015 -90 -90   XYZ
    dof rx rz
    limits (-90.0 90.0)
           (-45.0 45.0)
  end
  begin
     id 29
     name rfingers
     direction -1 -4.48973e-011 5.83886e-027   
     length 0.537277   
     axis -3.72598e-015 -90 -90   XYZ
    dof rx
    limits (0.0 90.0)
  end
  begin
     id 30
     name rthumb
     direction -0.707107 -6.34976e-011 0.707107   
     length 0.771425   
     axis -90 -45 6.68868e-015   XYZ
    dof rx rz
    limits (-45.0 45.0)
           (-45.0 45.0)
  end
:hierarchy
  begin
    root lhipjoint rhipjoint lowerback
    lhipjoint lfemur
    lfemur ltibia
    ltibia lfoot
    lfoot ltoes
    rhipjoint rfemur
    rfemur rtibia
    rtibia rfoot
    rfoot rtoes
    lowerback upperback
    upperback thorax
    thorax lowerneck lclavicle rclavicle
    lowerneck upperneck
    upperneck head
    lclavicle lhumerus
    lhumerus lradius
    lradius lwrist
    lwrist lhand lthumb
    lhand lfingers
    rclavicle rhumerus
    rhumerus rradius
    rradius rwrist
    rwrist rhand rthumb
    rhand rfingers
  end

#!OML:ASF H:\LiuWeirdWalks\Patient Classification 1\Patient 1\Session 1\male.ASF
:FULLY-SPECIFIED
:DEGREES
97
root -1.39999 17.66 -27.1559 7.98972 3.02284 -3.01392
lowerback 3.46468 -2.82044 -0.0762685
upperback -3.4723 -3.51908 5.51859
thorax -5.20293 -1.63433 6.09134
lowerneck -16.3895 4.60374 2.93639
upperneck 18.7041 7.7241 -9.48808
head 9.0901 2.83283 -2.73487
rclavicle 2.56929e-014 -3.18055e-015
rhumerus -39.5736 2.23864 -79.3331
rradius 20.8561
rwrist -2.16854
rhand -16.1289 -4.39568
rfingers 7.12502
rthumb 10.0758 -34.1345
lclavicle 2.56929e-014 -3.18055e-015
lhumerus -43.1562 2.03616 90.0505
lradius 33.0951
lwrist 10.3821
lhand -13.5648 -1.62761
lfingers 7.12502
lthumb 12.5487 27.9755
rfemur -6.08105 -4.15357 25.5268
rtibia 30.9832
rfoot -18.7046 -20.352
rtoes -11.5009
lfemur -10.6753 1.98056 -10.7549
ltibia 36.8641
lfoot -15.4016 17.3824
ltoes -15.4086
98
root -1.41697 17.6815 -27.0971 7.9812 3.01845 -2.96982
lowerback 3.70987 -2.6145 -0.103321
upperback -3.40139 -3.24459 5.40528
thorax -5.30121 -1.49686 5.9792
lowerneck -16.3767 4.27735 2.72369
upperneck 18.5956 7.26159 -9.26557
head 9.00003 2.62882 -2.68468
rclavicle -3.34455e-014 -8.74653e-015
rhumerus -39.4627 1.46522 -79.1108
rradius 20.6264
rwrist -1.86846
rhand -16.12 -4.42213
rfingers 7.12502
rthumb 10.0844 -34.1605
lclavicle -3.34455e-014 -8.74653e-015
lhumerus -43.0894 1.60774 90.1072
lradius 33.058
lwrist 10.7367
lhand -13.7609 -1.61451
lfingers 7.12502
lthumb 12.3597 28.0001
rfemur -5.90818 -4.21694 25.5258
rtibia 30.9777
rfoot -18.1587 -20.2724
rtoes -12.1896
lfemur -11.3494 2.37396 -10.743
ltibia 38.2491
lfoot -14.7404 17.1467
ltoes -15.8121
99
root -1.43206 17.7045 -27.0369 7.98032 3.03384 -2.95229
lowerback 3.93236 -2.40482 -0.0810557
upperback -3.32667 -2.96294 5.2918
thorax -5.38484 -1.35826 5.83477
lowerneck -16.324 3.93083 2.49079
upperneck 18.4478 6.7684 -9.01872
head 8.88803 2.41355 -2.62614
rclavicle 6.95746e-016 4.77083e-015
rhumerus -39.3463 0.659098 -78.8795
rradius 20.4123
rwrist -1.54546
rhand -16.1459 -4.50476
rfingers 7.12502
rthumb 10.0594 -34.2443
lclavicle 6.95746e-016 4.77083e-015
lhumerus -43.0364 1.16654 90.1612
lradius 33.0251
lwrist 11.0929
lhand -13.9999 -1.6538
lfingers 7.12502
lthumb 12.1292 27.9746
rfemur -5.7452 -4.29204 25.5498
rtibia 30.9761
rfoot -17.5753 -20.1906
rtoes -12.8949
lfemur -12.0809 2.70678 -10.7174
ltibia 39.6754
lfoot -14.092 16.8935
ltoes -16.2419
100
root -1.4454 17.7288 -26.9759 7.99466 3.08635 -2.96061
lowerback 4.1339 -2.15002 0.000475638
upperback -3.27562 -2.61853 5.13282
thorax -5.49058 -1.19109 5.60128
lowerneck -16.1402 3.45495 2.19085
upperneck 18.2689 6.07908 -8.62867
head 8.7247 2.12037 -2.53292
rclavicle 9.98893e-015 -4.37326e-014
rhumerus -39.3183 -0.387581 -78.6061
rradius 20.2254
rwrist -1.16601
rhand -16.1822 -4.58056
rfingers 7.12502
rthumb 10.0243 -34.3218
lclavicle 9.98893e-015 -4.37326e-014
lhumerus -43.0423 0.521949 90.2268
lradius 33.0082
lwrist 11.4784
lhand -14.2674 -1.68518
lfingers 7.12502
lthumb 11.8712 27.9583
rfemur -5.59881 -4.38174 25.5979
rtibia 30.9716
rfoot -16.9588 -20.094
rtoes -13.6044
lfemur -12.8799 2.95893 -10.6781
ltibia 41.1149
lfoot -13.5251 16.5626
ltoes -16.6118
101
root -1.45714 17.7547 -26.9136 8.01879 3.17437 -3.00247
lowerback 4.31481 -2.12645 0.1336
upperback -3.22162 -2.57355 5.14568
thorax -5.54677 -1.17288 5.54317
lowerneck -16.0197 3.41047 2.10429
upperneck 18.0471 6.02959 -8.6761
head 8.624 2.09602 -2.54004
rclavicle 2.34566e-014 -1.98785e-014
rhumerus -39.1099 -0.607129 -78.4624
rradius 20.0348
rwrist -0.900815
rhand -16.2291 -4.66139
rfingers 7.12502
rthumb 9.97916 -34.4048
lclavicle 2.34566e-014 -1.98785e-014
lhumerus -43.1426 0.702056 90.1813
lradius 33.0543
lwrist 11.8216
lhand -14.5631 -1.77304
lfingers 7.12502
lthumb 11.5861 27.8867
rfemur -5.46022 -4.47158 25.6783
rtibia 30.9609
rfoot -16.314 -19.9769
rtoes -14.3257
lfemur -13.7314 3.14607 -10.6173
ltibia 42.5289
lfoot -13.1224 16.0863
ltoes -16.9149
102
root -1.46735 17.7821 -26.8496 8.04498 3.28197 -3.06526
lowerback 4.4772 -2.1066 0.296909
upperback -3.17473 -2.53103 5.16089
thorax -5.60065 -1.15702 5.46978
lowerneck -15.8328 3.33867 1.99108
upperneck 17.8185 5.94121 -8.69497
head 8.50509 2.05662 -2.53841
rclavicle -2.99171e-014 -5.56597e-015
rhumerus -38.9259 -0.848331 -78.3052
rradius 19.8641
rwrist -0.635289
rhand -16.2811 -4.68117
rfingers 7.12502
rthumb 9.92897 -34.427
lclavicle -2.99171e-014 -5.56597e-015
lhumerus -43.2959 0.876185 90.1388
lradius 33.1179
lwrist 12.1769
lhand -14.8827 -1.82962
lfingers 7.12502
lthumb 11.2779 27.8472
rfemur -5.31834 -4.53833 25.7757
rtibia 30.9389
rfoot -15.6271 -19.8433
rtoes -15.0618
lfemur -14.6115 3.28165 -10.5509
ltibia 43.8737
lfoot -12.9083 15.4231
ltoes -17.1281
103
root -1.47555 17.8112 -26.7833 8.05917 3.38953 -3.13245
lowerback 4.62639 -2.08755 0.482155
upperback -3.11789 -2.48859 5.17033
thorax -5.63744 -1.14259 5.37649
lowerneck -15.7243 3.26384 1.89086
upperneck 17.7033 5.85474 -8.71094
head 8.43942 2.01383 -2.53788
rclavicle 2.9122e-014 -3.49861e-014
rhumerus -38.7291 -1.12894 -78.1348
rradius 19.698
rwrist -0.348649
rhand -16.3326 -4.64536
rfingers 7.12502
rthumb 9.87927 -34.3936
lclavicle 2.9122e-014 -3.49861e-014
lhumerus -43.4666 1.04948 90.0946
lradius 33.1849
lwrist 12.5761
lhand -15.2167 -1.81299
lfingers 7.12502
lthumb 10.9557 27.8812
rfemur -5.15267 -4.5953 25.8611
rtibia 30.9025
rfoot -14.9154 -19.6642
rtoes -15.7728
lfemur -15.4838 3.36826 -10.5045
ltibia 45.104
lfoot -12.8618 14.5826
ltoes -17.3419
104
root -1.48197 17.8423 -26.7148 8.06636 3.46641 -3.21557
lowerback 4.76461 -2.05206 0.687615
upperback -3.06415 -2.42248 5.17601
thorax -5.67398 -1.11725 5.26505
lowerneck -15.5077 3.19654 1.84178
upperneck 17.4902 5.76298 -8.7571
head 8.32354 1.97498 -2.55661
rclavicle 5.76476e-015 -7.15625e-015
rhumerus -38.5436 -1.47167 -77.9384
rradius 19.5267
rwrist -0.0461299
rhand -16.3987 -4.57337
rfingers 7.12502
rthumb 9.81552 -34.3246
lclavicle 5.76476e-015 -7.15625e-015
lhumerus -43.6894 1.20015 90.0579
lradius 33.2572
lwrist 12.9941
lhand -15.5474 -1.77125
lfingers 7.12502
lthumb 10.6368 27.9395
rfemur -4.97255 -4.61479 25.9489
rtibia 30.8506
rfoot -14.1589 -19.4595
rtoes -16.4683
lfemur -16.3337 3.43462 -10.4672
ltibia 46.1823
lfoot -12.964 13.6006
ltoes -17.5864
105
root -1.48668 17.8752 -26.644 8.0681 3.52584 -3.29595
lowerback 4.91063 -2.01268 0.880657
upperback -2.97509 -2.35207 5.19723
thorax -5.67661 -1.08978 5.17537
lowerneck -15.5119 3.15769 1.83592
upperneck 17.3946 5.72422 -8.86214
head 8.29367 1.94865 -2.59485
rclavicle -1.13307e-014 -3.97569e-015
rhumerus -38.2625 -1.81175 -77.7264
rradius 19.3554
rwrist 0.226316
rhand -16.4724 -4.49804
rfingers 7.12502
rthumb 9.74444 -34.2526
lclavicle -1.13307e-014 -3.97569e-015
lhumerus -43.858 1.38561 90.0448
lradius 33.3091
lwrist 13.4116
lhand -15.8862 -1.73438
lfingers 7.12502
lthumb 10.3099 27.9929
rfemur -4.77731 -4.62011 26.0215
rtibia 30.7843
rfoot -13.3587 -19.2309
rtoes -17.1477
lfemur -17.1566 3.46228 -10.4592
ltibia 47.0807
lfoot -13.1487 12.5561
ltoes -17.8065
106
root -1.48937 17.9108 -26.571 8.08916 3.56375 -3.34053
lowerback 5.03517 -1.95985 1.04203
upperback -2.88435 -2.2672 5.20698
thorax -5.66507 -1.0543 5.0887
lowerneck -15.4988 3.11285 1.82598
upperneck 17.2633 5.67238 -8.95613
head 8.24743 1.91862 -2.63001
rclavicle 1.53064e-014 1.66979e-014
rhumerus -37.9433 -2.21958 -77.4839
rradius 19.1555
rwrist 0.51637
rhand -16.5587 -4.40473
rfingers 7.12502
rthumb 9.66113 -34.1632
lclavicle 1.53064e-014 1.66979e-014
lhumerus -44.0226 1.55706 90.0455
lradius 33.3316
lwrist 13.8003
lhand -16.1913 -1.73085
lfingers 7.12502
lthumb 10.0156 28.0108
rfemur -4.59462 -4.63841 26.0385
rtibia 30.7027
rfoot -12.5299 -18.9649
rtoes -17.7916
lfemur -17.97 3.45714 -10.5229
ltibia 47.7813
lfoot -13.3558 11.5423
ltoes -18.0249
107
root -1.49065 17.9486 -26.4958 8.12842 3.60469 -3.35605
lowerback 5.15472 -1.90945 1.17051
upperback -2.80501 -2.18751 5.21775
thorax -5.6606 -1.01985 5.02231
lowerneck -15.4675 3.06649 1.7983
upperneck 17.1204 5.62039 -9.04545
head 8.19343 1.88875 -2.66061
rclavicle 2.25621e-014 -4.92986e-014
rhumerus -37.6197 -2.59086 -77.2526
rradius 18.9736
rwrist 0.739757
rhand -16.6844 -4.37369
rfingers 7.12502
rthumb 9.53991 -34.1377
lclavicle 2.25621e-014 -4.92986e-014
lhumerus -44.2039 1.75104 90.0536
lradius 33.3239
lwrist 14.1076
lhand -16.4474 -1.77719
lfingers 7.12502
lthumb 9.76852 27.9762
rfemur -4.42042 -4.67029 26.0196
rtibia 30.6027
rfoot -11.655 -18.6884
rtoes -18.4427
lfemur -18.7738 3.41001 -10.6412
ltibia 48.2768
lfoot -13.5627 10.6503
ltoes -18.2367
108
root -1.49052 17.9882 -26.4184 8.19642 3.63059 -3.358
lowerback 5.26407 -1.84957 1.28156
upperback -2.7357 -2.09638 5.22572
thorax -5.6609 -0.978948 4.96147
lowerneck -15.4289 2.99839 1.73309
upperneck 16.9646 5.53851 -9.09923
head 8.12992 1.84646 -2.67644
rclavicle 2.54444e-014 -5.40694e-014
rhumerus -37.2899 -2.9737 -77.0171
rradius 18.8012
rwrist 0.927614
rhand -16.8095 -4.34831
rfingers 7.12502
rthumb 9.41911 -34.1178
lclavicle 2.54444e-014 -5.40694e-014
lhumerus -44.3883 1.93448 90.0699
lradius 33.2901
lwrist 14.3515
lhand -16.6294 -1.80547
lfingers 7.12502
lthumb 9.5929 27.9561
rfemur -4.26129 -4.69503 25.9811
rtibia 30.4734
rfoot -10.7509 -18.4033
rtoes -19.072
lfemur -19.5749 3.34542 -10.7954
ltibia 48.5624
lfoot -13.7474 9.93084
ltoes -18.4113
109
root -1.48915 18.0296 -26.3385 8.28571 3.64716 -3.36149
lowerback 5.36499 -1.78227 1.3904
upperback -2.72076 -1.99342 5.22568
thorax -5.71445 -0.931217 4.89399
lowerneck -15.2437 2.88902 1.61238
upperneck 16.8047 5.39565 -9.07908
head 8.03124 1.78315 -2.6664
rclavicle 8.54774e-015 -3.18055e-015
rhumerus -37.0579 -3.36016 -76.7836
rradius 18.6462
rwrist 1.09487
rhand -16.9257 -4.36987
rfingers 7.12502
rthumb 9.30702 -34.1444
lclavicle 8.54774e-015 -3.18055e-015
lhumerus -44.6769 2.07922 90.0823
lradius 33.2342
lwrist 14.5346
lhand -16.7231 -1.84456
lfingers 7.12502
lthumb 9.50256 27.9212
rfemur -4.10567 -4.7188 25.9404
rtibia 30.3038
rfoot -9.81644 -18.1143
rtoes -19.704
lfemur -20.3636 3.2804 -10.9641
ltibia 48.6405
lfoot -13.9252 9.40494
ltoes -18.5633
110
root -1.4866 18.0729 -26.2561 8.39274 3.65785 -3.36518
lowerback 5.45413 -1.70008 1.50002
upperback -2.70283 -1.87104 5.22276
thorax -5.75921 -0.874142 4.82007
lowerneck -15.0749 2.76688 1.48102
upperneck 16.6351 5.23271 -9.03954
head 7.93068 1.71133 -2.64996
rclavicle 6.95746e-015 1.74931e-014
rhumerus -36.8082 -3.75217 -76.5599
rradius 18.5112
rwrist 1.20858
rhand -17.0505 -4.46098
rfingers 7.12502
rthumb 9.18661 -34.2409
lclavicle 6.95746e-015 1.74931e-014
lhumerus -44.9434 2.18329 90.1095
lradius 33.147
lwrist 14.6623
lhand -16.7447 -1.84481
lfingers 7.12502
lthumb 9.48171 27.9219
rfemur -3.9447 -4.73336 25.8996
rtibia 30.0841
rfoot -8.83954 -17.8363
rtoes -20.343
lfemur -21.1369 3.2096 -11.1445
ltibia 48.5139
lfoot -14.07 9.09211
ltoes -18.602
